<?xml version="1.0" encoding="UTF-8"?><svg id="Calque_1" xmlns="http://www.w3.org/2000/svg" viewBox="0 0 2260 1801"><g><path d="M573.87,837.3s-178.14-108.69-253.29-40.18c-75.15,68.52,253.29,40.18,253.29,40.18Z" style="fill:#d85513;"/><path d="M581.54,912.96c-2.16,14.34-9.55,35.66-29.06,66.02-10.89,16.95,5.03,38.27,24.4,32.7,31.46-9.05,71.33-33.33,100.43-95.31,10.17-21.65,22.54-42.22,37.59-60.81,44.61-55.1,137.05-136.08,270.63-87.77,0,0,120.62,57.81,150.53,33.78,9.18-7.37,3.91-25.42-7.79-46.89-70.77-129.78-301.15-256-514.27,58.95-19.75,29.19-27.21,64.48-32.46,99.33Z" style="fill:#d85513;"/><g><path d="M1197.78,826.46c-15.56-13.3-23.05-29.38-22.93-49.16,.02-3.76-.85-10.53-7.89-29.6-10.1-27.33-13.13-57.14-8.77-86.21,.83-5.52-1.46-10.99-5.97-14.28-4.51-3.28-10.42-3.79-15.42-1.3l-61.81,30.67c-49.85-37.59-106.13-53.87-167.38-48.41-49.99,4.46-103.15,23.36-158.12,56.2-92.85,55.47-157.91,130.55-160.63,133.72l13.51,11.62c.65-.75,65.87-76.04,156.26-130.03,52.65-31.45,103.27-49.54,150.56-53.75,58.42-5.21,112,10.98,159.26,48.12l4.43,3.48,29.7-14.74c-4.67,7.28-8.31,15.5-10.29,24.75-4.06,19.01,1.03,33.35,1.25,33.95l16.75-6.09c-.14-.38-12.19-35.36,28.9-65.14-2.54,28.36,1.22,57.04,11.04,83.61,6.49,17.58,6.79,22.5,6.79,23.3-.17,25,9.65,46.14,29.17,62.82,1.18,1.01,1.88,1.78,2.29,2.32-.65,.53-1.83,1.33-3.89,2.28-10.86,5.01-23.96,4.53-35.05-1.29-30.88-16.2-88.28-42.33-125.82-35.46l3.22,17.53c33.53-6.15,91.1,21.53,114.32,33.71,10.59,5.56,22.52,7.7,33.98,6.38,5.8-.67,11.49-2.23,16.82-4.69,8.75-4.04,13.65-9.43,14.56-16.02,.88-6.37-2.1-12.53-8.85-18.3Z" style="fill:#212a3d;"/><path d="M986.45,873.23l-17.28-4.37c7.06-27.89,3.97-48.59-9.16-61.52-18.37-18.08-53.79-19.78-80.27-18.01-29.94,1.99-55.55,8.83-55.8,8.9l-4.65-17.21c4.46-1.21,109.84-29.07,153.21,13.61,17.98,17.69,22.67,44.14,13.95,78.6Z" style="fill:#212a3d;"/><path d="M413.22,1170.54c-.88,.1-1.78,.18-2.7,.23-12.63,.69-28.16-3.63-33.44-13.22-2.9-5.28-2.43-11.3,1.29-16.51,48.92-68.47,85.48-107.7,112.18-136.35,44.68-47.94,55.29-59.33,44.11-122.65l17.55-3.1c12.72,72.07-2.74,88.66-48.63,137.9-26.16,28.08-61.92,66.45-109.62,133.04,3.05,1.78,10.29,3.9,17.66,2.9,4.02-.54,6.29-1.86,6.71-2.86,19.27-46.46,50.21-80.34,91.97-100.7,34.14-16.64,66.84-20.26,86.41-22.41,1.54-.17,2.99-.33,4.35-.49,6.1-.7,12.53-2.2,19.11-4.44,23.27-7.91,42.77-26.04,53.51-49.73,48.91-107.93,115.41-122.25,118.21-122.8l3.47,17.48-1.73-8.74,1.79,8.73c-.15,.03-15.22,3.34-35.59,18.7-18.93,14.28-46.43,42.18-69.91,93.99-12.76,28.16-36.09,49.75-64,59.25-7.78,2.65-15.45,4.42-22.81,5.27-1.38,.16-2.86,.32-4.44,.5-36.78,4.06-122.98,13.57-163.88,112.22-3.16,7.62-10.95,12.56-21.58,13.79Z" style="fill:#212a3d;"/><path d="M575.57,829.77c-51.81-34.68-102.59-56.23-150.91-64.05-39.05-6.32-76.58-3.75-111.53,7.64-1.07,.35-2.12,.72-3.17,1.08-11.66,3.64-21.33,8.27-27.14,11.35-39.9,19.94-70.35,57.49-70.35,57.49,0,0,126.99,38.38,239.72,33.25,102.79-4.68,133.39-40.05,133.39-40.05l-10.03-6.71Zm-83.07,24.85c-80.63,12.6-176.54-3.72-247.46-21.32,8.49-7.92,22.31-19.13,41.22-29.2l.1,.16c.08-.05,1.86-1.13,4.88-2.73,7-3.49,14.64-6.78,22.9-9.69,13.26-4.3,29.42-7.19,44.22-3.4,13.36,3.43,23.58,11.7,31.25,25.28l15.52-8.76c-5.95-10.54-13.39-18.81-22.22-24.78,12.74-.04,25.71,.99,38.9,3.13,42.1,6.82,86.42,24.8,131.9,53.5-11.11,5.46-30.86,13.07-61.22,17.81Z" style="fill:#212a3d;"/></g></g><g><path d="M803.6,1181.59c2.22-15.78,4.13-32.43,5.74-49.95,1.6-17.51,2.59-36.01,2.96-55.5,.37-19.48,0-39.83-1.11-61.05-1.11-21.21-3.27-43.41-6.48-66.6h66.6c13.56,.25,26.64,1.3,39.22,3.15,12.58,1.85,23.74,5.55,33.49,11.1,9.74,5.55,17.57,13.5,23.49,23.86,5.92,10.36,8.88,24.05,8.88,41.07,0,12.83-2.28,23.62-6.85,32.38-4.57,8.76-10.73,15.97-18.5,21.65-7.77,5.68-16.78,10.05-27.01,13.14-10.24,3.09-20.91,5.36-32.01,6.84,12.33,10.12,25.84,21.09,40.52,32.93,14.67,11.84,26.7,27.51,36.08,46.99h-72.52c-1.98-7.15-3.7-13.81-5.18-19.98-1.48-6.16-3.21-12.21-5.18-18.13-1.98-5.92-4.57-11.9-7.77-17.94-3.21-6.04-7.53-12.4-12.95-19.06,.49,12.83,1.17,25.47,2.04,37.93,.86,12.46,2.28,24.85,4.25,37.19h-67.71Zm61.42-90.65c12.33-1.97,22.57-6.16,30.71-12.58,8.14-6.41,14.18-13.93,18.13-22.57,3.94-8.63,5.86-17.88,5.73-27.75-.13-9.86-2.1-19.24-5.92-28.12-3.83-8.88-9.38-16.77-16.65-23.68-7.28-6.9-16.22-11.59-26.82-14.06-1.73,20.72-3.09,41.87-4.07,63.45-.99,21.59-1.36,43.35-1.11,65.31Z" style="fill:#212a3d;"/><path d="M1131.05,1099.45h-98.42c0,12.83,3.64,23,10.92,30.52,7.27,7.53,16.03,12.34,26.27,14.43,10.23,2.1,20.91,1.61,32.01-1.48,11.1-3.08,20.59-8.7,28.49-16.83-2.22,7.65-5.55,14.93-9.99,21.83-4.44,6.91-9.68,12.95-15.73,18.13-6.05,5.18-12.89,9.31-20.54,12.4-7.65,3.09-15.91,4.62-24.79,4.62-11.35,0-21.71-1.97-31.08-5.92-9.38-3.94-17.39-9.62-24.05-17.02-6.66-7.4-11.78-16.22-15.35-26.46-3.58-10.23-5.37-21.65-5.37-34.22,0-16.03,3.52-29.97,10.55-41.81,7.03-11.84,15.91-21.15,26.64-27.94,10.73-6.78,22.39-10.79,34.97-12.02,12.58-1.23,24.36,.8,35.33,6.1,10.97,5.31,20.22,14.19,27.75,26.64,7.52,12.46,11.65,28.8,12.4,49.03Zm-74.74-11.84c8.63,0,15.91-2.28,21.83-6.84,5.92-4.56,8.88-11.41,8.88-20.54,0-11.84-2.84-19.85-8.51-24.05-5.68-4.19-11.9-4.93-18.69-2.22-6.79,2.72-13.01,8.64-18.69,17.76-5.68,9.13-8.51,21.09-8.51,35.89h23.68Z" style="fill:#212a3d;"/><path d="M1191.72,1181.59c-10.36-56.98-28.12-111.98-53.28-165.02h51.43c3.2,19.24,8.2,40.02,14.99,62.34,6.78,22.33,14.12,43.48,22.01,63.46,9.37-21.46,17.45-42.05,24.24-61.79,6.78-19.73,11.41-41.07,13.88-64.01h21.09c-4.94,11.35-9.81,23.62-14.61,36.81-4.81,13.2-9.5,26.95-14.06,41.26-4.57,14.31-8.88,28.8-12.95,43.47-4.07,14.68-7.96,29.17-11.65,43.48h-41.07Z" style="fill:#212a3d;"/><path d="M1366.73,1014.35c13.07,0,24.42,2.28,34.04,6.84,9.62,4.57,17.63,10.79,24.05,18.69,6.41,7.9,11.16,16.96,14.25,27.2,3.08,10.24,4.62,21.15,4.62,32.74s-1.48,22.94-4.44,33.3c-2.96,10.36-7.58,19.37-13.88,27.01-6.29,7.65-14.31,13.63-24.05,17.95-9.75,4.31-21.27,6.47-34.6,6.47s-24.79-2.22-34.41-6.66-17.58-10.42-23.87-17.95c-6.29-7.52-10.98-16.47-14.06-26.82-3.09-10.36-4.62-21.46-4.62-33.3s1.54-22.57,4.62-32.93c3.08-10.36,7.77-19.43,14.06-27.2s14.25-13.93,23.87-18.5c9.62-4.56,21.09-6.84,34.41-6.84Zm0,158.73c4.19,0,7.77-1.42,10.73-4.25,2.96-2.83,5.36-6.48,7.21-10.92,1.85-4.44,3.33-9.44,4.44-14.99s1.91-11.1,2.4-16.65c.49-5.55,.8-10.73,.93-15.54,.12-4.81,.19-8.7,.19-11.66,0-4.44-.25-10.79-.74-19.05-.5-8.26-1.61-16.47-3.33-24.6-1.73-8.14-4.32-15.23-7.77-21.28-3.46-6.04-8.14-9.06-14.06-9.06-3.95,0-7.34,1.42-10.17,4.26s-5.18,6.47-7.03,10.91c-1.85,4.44-3.33,9.44-4.44,14.99-1.11,5.55-1.98,11.1-2.59,16.65-.62,5.55-.99,10.73-1.11,15.54-.13,4.81-.19,8.7-.19,11.66s.06,6.84,.19,11.66c.12,4.81,.49,9.93,1.11,15.35,.61,5.43,1.48,10.92,2.59,16.47,1.11,5.55,2.59,10.61,4.44,15.17,1.85,4.57,4.19,8.27,7.03,11.1,2.83,2.84,6.23,4.25,10.17,4.25Z" style="fill:#212a3d;"/><path d="M1506.96,1181.59h-49.58c2.22-15.54,3.76-28.98,4.62-40.33,.86-11.34,1.29-22.39,1.29-33.11s-.5-21.77-1.48-33.11c-.99-11.34-2.47-24.79-4.44-40.33l49.58-17.76v27.75c2.71-8.88,7.64-15.73,14.8-20.54,7.15-4.81,15.29-7.21,24.42-7.21,12.33,0,22.39,2.16,30.16,6.47,7.77,4.32,13.88,10.12,18.31,17.39,4.44,7.28,7.34,15.67,8.69,25.16,1.35,9.5,1.79,19.43,1.29,29.78-.5,7.9-.68,15.42-.55,22.57,.12,7.16,.43,14.12,.92,20.91,.49,6.79,1.35,13.63,2.59,20.53,1.23,6.91,2.71,14.19,4.44,21.83h-54.39c.74-4.68,1.48-11.41,2.22-20.17,.74-8.75,1.29-18.44,1.67-29.04,.37-10.6,.24-21.4-.37-32.38-.62-10.97-1.85-20.96-3.7-29.97-1.85-9-4.62-16.34-8.33-22.02-3.7-5.67-8.51-8.51-14.43-8.51-6.66,0-12.15,2.84-16.47,8.51-4.32,5.68-7.65,12.95-9.99,21.83-2.35,8.88-3.95,18.75-4.81,29.6-.87,10.86-1.24,21.59-1.11,32.19,.12,10.61,.68,20.35,1.66,29.23,.98,8.88,1.97,15.79,2.96,20.72Z" style="fill:#212a3d;"/><path d="M1628.32,1025.82v-12.58h15.54c-.25-6.9-.68-13.01-1.3-18.31-.62-5.3-1.66-11.66-3.14-19.05h59.2c-.99,7.16-1.79,13.5-2.4,19.05-.62,5.55-1.17,12.03-1.67,19.43h13.69l.37,11.47h-14.06c-2.22,25.9-2.84,52.17-1.85,78.81,.98,26.64,2.46,52.3,4.44,76.96h-61.05c1.48-12.33,2.83-25.03,4.07-38.11,1.23-13.07,2.28-26.27,3.15-39.59,.86-13.32,1.35-26.58,1.48-39.78,.12-13.19-.19-25.96-.92-38.29h-15.54Z" style="fill:#212a3d;"/><path d="M1876.96,1181.59h-54.39c1.23-5.67,1.97-10.85,2.22-15.54,.24-4.68,.37-9.86,.37-15.54-2.96,8.88-8.33,16.28-16.1,22.2-7.77,5.92-16.34,8.88-25.71,8.88-11.84,0-21.59-2.16-29.23-6.48-7.65-4.31-13.63-10.05-17.95-17.2-4.32-7.15-7.34-15.41-9.06-24.79-1.73-9.37-2.59-19.11-2.59-29.23,0-13.81-.06-26.02-.19-36.63-.13-10.6-.8-21.58-2.04-32.93l52.17-17.39c-.5,2.96-1.17,8.76-2.04,17.39-.87,8.64-1.54,18.44-2.04,29.42-.5,10.98-.74,22.45-.74,34.41s.74,22.94,2.22,32.93c1.48,9.99,3.82,18.19,7.03,24.6,3.2,6.42,7.52,9.62,12.95,9.62,6.41,0,11.66-2.65,15.73-7.96,4.07-5.3,7.27-12.15,9.62-20.53,2.34-8.38,4.01-17.7,5-27.94,.98-10.23,1.54-20.17,1.67-29.78,.12-9.62-.13-18.44-.74-26.46-.62-8.01-1.17-14-1.67-17.94l50.32-17.76c-.74,4.2-1.42,10.3-2.03,18.31-.62,8.02-.99,17.08-1.11,27.2-.13,10.12-.13,20.78,0,32,.12,11.23,.49,22.2,1.11,32.93,.61,10.73,1.54,20.85,2.77,30.34,1.23,9.5,2.71,17.45,4.44,23.86Z" style="fill:#212a3d;"/><path d="M1959.46,1181.59h-66.23c3.45-18.25,6.04-38.23,7.77-59.94,1.72-21.7,2.59-43.84,2.59-66.42s-.87-44.71-2.59-66.42c-1.73-21.7-4.32-41.68-7.77-59.94l66.23-.37c-3.21,18.5-5.68,38.61-7.4,60.31-1.73,21.71-2.59,43.72-2.59,66.04s.86,44.4,2.59,66.23c1.72,21.83,4.19,42,7.4,60.5Z" style="fill:#212a3d;"/><path d="M1975.74,962.18c6.66-5.42,12.89-10.92,18.69-16.47,5.79-5.55,11.53-11.78,17.2-18.69,10.36,13.32,22.32,25.04,35.89,35.15-6.66,5.43-12.89,10.86-18.69,16.28-5.8,5.43-11.53,11.6-17.21,18.5-5.43-6.9-11.1-13.14-17.02-18.69-5.92-5.55-12.21-10.92-18.87-16.09Zm5.55,219.41c4.93-23.43,7.58-49.08,7.96-76.96,.37-27.87-2.28-57.22-7.96-88.06h59.94c-2.47,14.31-4.32,28.86-5.55,43.66-1.24,14.8-1.79,29.29-1.67,43.48,.12,14.19,.8,27.88,2.04,41.07,1.23,13.2,2.96,25.47,5.18,36.81h-59.94Z" style="fill:#212a3d;"/></g></svg>